<?xml version="1.0" encoding="UTF-8"?>
<svg xmlns="http://www.w3.org/2000/svg" onmouseup="{ if(window.parent.document.onmouseup) window.parent.document.onmouseup(arguments[0]);}" viewBox="0 0 36 36" height="128" width="128" xmlns:xlink="http://www.w3.org/1999/xlink"><defs><circle data-cppathid="10000" r="16" cy="18" cx="18" id="location-b"/><filter filterUnits="objectBoundingBox" y="-9.4%" x="-9.4%" height="118.8%" width="118.8%" id="location-a"><feOffset result="shadowOffsetOuter1" in="SourceAlpha"/><feGaussianBlur stdDeviation="1" result="shadowBlurOuter1" in="shadowOffsetOuter1"/><feComposite result="shadowBlurOuter1" operator="out" in2="SourceAlpha" in="shadowBlurOuter1"/><feColorMatrix values="0 0 0 0 0   0 0 0 0 0   0 0 0 0 0  0 0 0 0.5 0" in="shadowBlurOuter1"/></filter></defs><g fill-rule="evenodd" fill="none"><rect data-cppathid="10001" opacity="0" fill="#03FF00" height="128" width="128"/><use xlink:href="#location-b" filter="url(#location-a)" fill="#000"/><circle data-cppathid="10002" stroke-width="2" stroke-linejoin="square" stroke="#FFF" fill="#000" r="15" cy="18" cx="18"/><path data-cppathid="10003" d="M18,9.963 C14.6862915,9.963 12,12.6492915 12,15.963 C12,19.277 18,26.838 18,26.838 C18,26.838 24,19.277 24,15.963 C24,12.6492915 21.3137085,9.963 18,9.963 Z M18,18.325 C17.0596253,18.325 16.2118459,17.7585319 15.8519801,16.889739 C15.4921143,16.020946 15.6910314,15.0209221 16.3559767,14.3559767 C17.0209221,13.6910314 18.020946,13.4921143 18.889739,13.8519801 C19.7585319,14.2118459 20.325,15.0596253 20.325,16 C20.325,17.284062 19.284062,18.325 18,18.325 Z" fill-rule="nonzero" fill="#FFF"/></g></svg>